<?xml version="1.0" standalone="no"?> 
<!DOCTYPE svg PUBLIC "-//W3C//DTD SVG 1.1//EN" "http://www.w3.org/Graphics/SVG/1.1/DTD/svg11.dtd">

<svg viewBox="-62.5 -109.98000000000002 1375.0 219.98000000000002 " width="1376.25" height="220.18"  version="1.1" xmlns="http://www.w3.org/2000/svg">
 <g stroke="rgb(0,0,0)" fill="rgba(255,255,255,0)" style="fill-opacity:1;fill:none" >
<line x1="0" y1="0.0" x2="10.0" y2="-9.98334166" style="stroke:rgb(150,150,150);" />

<line x1="0" y1="0" x2="10.0" y2="0" />

<line x1="0" y1="0.0" x2="10.0" y2="-4.99791693" style="stroke:rgb(0,100,0);" />

<line x1="10.0" y1="-9.983341664682815" x2="20.0" y2="-19.866933074682816" style="stroke:rgb(150,150,150);" />

<line x1="10.0" y1="0" x2="20.0" y2="0" />

<line x1="10.0" y1="-4.997916927067833" x2="20.0" y2="-9.983341667067833" style="stroke:rgb(0,100,0);" />

<line x1="20.0" y1="-19.866933079506122" x2="30.000000000000004" y2="-29.552020669506117" style="stroke:rgb(150,150,150);" />

<line x1="20.0" y1="0" x2="30.000000000000004" y2="0" />

<line x1="20.0" y1="-9.983341664682815" x2="30.000000000000004" y2="-14.943813244682817" style="stroke:rgb(0,100,0);" />

<line x1="30.000000000000004" y1="-29.55202066613396" x2="40.0" y2="-38.941834226133956" style="stroke:rgb(150,150,150);" />

<line x1="30.000000000000004" y1="0" x2="40.0" y2="0" />

<line x1="30.000000000000004" y1="-14.943813247359925" x2="40.0" y2="-19.866933077359924" style="stroke:rgb(0,100,0);" />

<line x1="40.0" y1="-38.941834230865055" x2="50.0" y2="-47.94255386086505" style="stroke:rgb(150,150,150);" />

<line x1="40.0" y1="0" x2="50.0" y2="0" />

<line x1="40.0" y1="-19.866933079506122" x2="50.0" y2="-24.74039592950612" style="stroke:rgb(0,100,0);" />

<line x1="50.0" y1="-47.942553860420304" x2="60.0" y2="-56.4642473404203" style="stroke:rgb(150,150,150);" />

<line x1="50.0" y1="0" x2="60.0" y2="0" />

<line x1="50.0" y1="-24.740395925452294" x2="60.0" y2="-29.552020665452293" style="stroke:rgb(0,100,0);" />

<line x1="60.0" y1="-56.46424733950354" x2="70.0" y2="-64.42176871950353" style="stroke:rgb(150,150,150);" />

<line x1="60.0" y1="0" x2="70.0" y2="0" />

<line x1="60.0" y1="-29.552020666133956" x2="70.0" y2="-34.28978074613396" style="stroke:rgb(0,100,0);" />

<line x1="70.0" y1="-64.4217687237691" x2="80.0" y2="-71.7356090937691" style="stroke:rgb(150,150,150);" />

<line x1="70.0" y1="0" x2="80.0" y2="0" />

<line x1="70.0" y1="-34.28978074554514" x2="80.0" y2="-38.94183423554514" style="stroke:rgb(0,100,0);" />

<line x1="80.0" y1="-71.73560908995226" x2="89.99999999999999" y2="-78.33269095995227" style="stroke:rgb(150,150,150);" />

<line x1="80.0" y1="0" x2="89.99999999999999" y2="0" />

<line x1="80.0" y1="-38.94183423086505" x2="89.99999999999999" y2="-43.49655341086505" style="stroke:rgb(0,100,0);" />

<line x1="89.99999999999999" y1="-78.33269096274833" x2="99.99999999999999" y2="-84.14709848274833" style="stroke:rgb(150,150,150);" />

<line x1="89.99999999999999" y1="0" x2="99.99999999999999" y2="0" />

<line x1="89.99999999999999" y1="-43.49655341112302" x2="99.99999999999999" y2="-47.94255386112302" style="stroke:rgb(0,100,0);" />

<line x1="99.99999999999999" y1="-84.14709848078964" x2="109.99999999999999" y2="-89.12073601078964" style="stroke:rgb(150,150,150);" />

<line x1="99.99999999999999" y1="0" x2="109.99999999999999" y2="0" />

<line x1="99.99999999999999" y1="-47.9425538604203" x2="109.99999999999999" y2="-52.26872289042029" style="stroke:rgb(0,100,0);" />

<line x1="109.99999999999999" y1="-89.12073600614353" x2="120.0" y2="-93.20390859614352" style="stroke:rgb(150,150,150);" />

<line x1="109.99999999999999" y1="0" x2="120.0" y2="0" />

<line x1="109.99999999999999" y1="-52.26872289306591" x2="120.0" y2="-56.46424734306591" style="stroke:rgb(0,100,0);" />

<line x1="120.0" y1="-93.20390859672263" x2="130.0" y2="-96.35581853672262" style="stroke:rgb(150,150,150);" />

<line x1="120.0" y1="0" x2="130.0" y2="0" />

<line x1="120.0" y1="-56.46424733950354" x2="130.0" y2="-60.51864056950353" style="stroke:rgb(0,100,0);" />

<line x1="130.0" y1="-96.3558185417193" x2="140.0" y2="-98.5449730017193" style="stroke:rgb(150,150,150);" />

<line x1="130.0" y1="0" x2="140.0" y2="0" />

<line x1="130.0" y1="-60.51864057360395" x2="140.0" y2="-64.42176872360396" style="stroke:rgb(0,100,0);" />

<line x1="140.0" y1="-98.54497299884602" x2="150.00000000000003" y2="-99.74949865884602" style="stroke:rgb(150,150,150);" />

<line x1="140.0" y1="0" x2="150.00000000000003" y2="0" />

<line x1="140.0" y1="-64.42176872376912" x2="150.00000000000003" y2="-68.1638760037691" style="stroke:rgb(0,100,0);" />

<line x1="150.00000000000003" y1="-99.74949866040545" x2="160.00000000000003" y2="-99.95736030040544" style="stroke:rgb(150,150,150);" />

<line x1="150.00000000000003" y1="0" x2="160.00000000000003" y2="0" />

<line x1="150.00000000000003" y1="-68.16387600233342" x2="160.00000000000003" y2="-71.73560909233342" style="stroke:rgb(0,100,0);" />

<line x1="160.00000000000003" y1="-99.95736030415051" x2="170.00000000000003" y2="-99.16648104415052" style="stroke:rgb(150,150,150);" />

<line x1="160.00000000000003" y1="0" x2="170.00000000000003" y2="0" />

<line x1="160.00000000000003" y1="-71.73560908995229" x2="170.00000000000003" y2="-75.12804050995229" style="stroke:rgb(0,100,0);" />

<line x1="170.00000000000003" y1="-99.16648104524685" x2="180.00000000000006" y2="-97.38476308524686" style="stroke:rgb(150,150,150);" />

<line x1="170.00000000000003" y1="0" x2="180.00000000000006" y2="0" />

<line x1="170.00000000000003" y1="-75.12804051402928" x2="180.00000000000006" y2="-78.33269096402928" style="stroke:rgb(0,100,0);" />

<line x1="180.00000000000006" y1="-97.38476308781951" x2="190.00000000000006" y2="-94.6300087678195" style="stroke:rgb(150,150,150);" />

<line x1="180.00000000000006" y1="0" x2="190.00000000000006" y2="0" />

<line x1="180.00000000000006" y1="-78.33269096274836" x2="190.00000000000006" y2="-81.34155048274835" style="stroke:rgb(0,100,0);" />

<line x1="190.00000000000006" y1="-94.63000876874142" x2="200.00000000000006" y2="-90.92974267874142" style="stroke:rgb(150,150,150);" />

<line x1="190.00000000000006" y1="0" x2="200.00000000000006" y2="0" />

<line x1="190.00000000000006" y1="-81.34155047893739" x2="200.00000000000006" y2="-84.1470984789374" style="stroke:rgb(0,100,0);" />

<line x1="200.00000000000006" y1="-90.92974268256815" x2="210.00000000000006" y2="-86.32093666256814" style="stroke:rgb(150,150,150);" />

<line x1="200.00000000000006" y1="0" x2="210.00000000000006" y2="0" />

<line x1="200.00000000000006" y1="-84.14709848078967" x2="210.00000000000006" y2="-86.74232256078966" style="stroke:rgb(0,100,0);" />

<line x1="210.00000000000006" y1="-86.32093666488736" x2="220.00000000000006" y2="-80.84964038488735" style="stroke:rgb(150,150,150);" />

<line x1="210.00000000000006" y1="0" x2="220.00000000000006" y2="0" />

<line x1="210.00000000000006" y1="-86.74232255940171" x2="220.00000000000006" y2="-89.12073600940171" style="stroke:rgb(0,100,0);" />

<line x1="220.00000000000006" y1="-80.84964038195899" x2="230.00000000000006" y2="-74.57052122195898" style="stroke:rgb(150,150,150);" />

<line x1="220.00000000000006" y1="0" x2="230.00000000000006" y2="0" />

<line x1="220.00000000000006" y1="-89.12073600614356" x2="230.00000000000006" y2="-91.27639402614355" style="stroke:rgb(0,100,0);" />

<line x1="230.00000000000006" y1="-74.57052121767197" x2="240.00000000000009" y2="-67.54631805767197" style="stroke:rgb(150,150,150);" />

<line x1="230.00000000000006" y1="0" x2="240.00000000000009" y2="0" />

<line x1="230.00000000000006" y1="-91.27639402605212" x2="240.00000000000009" y2="-93.20390859605212" style="stroke:rgb(0,100,0);" />

<line x1="240.00000000000009" y1="-67.54631805511502" x2="250.00000000000009" y2="-59.847214415115026" style="stroke:rgb(150,150,150);" />

<line x1="240.00000000000009" y1="0" x2="250.00000000000009" y2="0" />

<line x1="240.00000000000009" y1="-93.20390859672266" x2="250.00000000000009" y2="-94.89846193672265" style="stroke:rgb(0,100,0);" />

<line x1="250.00000000000009" y1="-59.84721441039558" x2="260.0000000000001" y2="-51.55013718039558" style="stroke:rgb(150,150,150);" />

<line x1="250.00000000000009" y1="0" x2="260.0000000000001" y2="0" />

<line x1="250.00000000000009" y1="-94.89846193555863" x2="260.0000000000001" y2="-96.35581854555863" style="stroke:rgb(0,100,0);" />

<line x1="260.0000000000001" y1="-51.55013718214634" x2="270.0000000000001" y2="-42.73798802214634" style="stroke:rgb(150,150,150);" />

<line x1="260.0000000000001" y1="0" x2="270.0000000000001" y2="0" />

<line x1="260.0000000000001" y1="-96.3558185417193" x2="270.0000000000001" y2="-97.57233578171932" style="stroke:rgb(0,100,0);" />

<line x1="270.0000000000001" y1="-42.7379880233829" x2="280.0000000000001" y2="-33.498815013382895" style="stroke:rgb(150,150,150);" />

<line x1="270.0000000000001" y1="0" x2="280.0000000000001" y2="0" />

<line x1="270.0000000000001" y1="-97.57233578266592" x2="280.0000000000001" y2="-98.54497300266591" style="stroke:rgb(0,100,0);" />

<line x1="280.0000000000001" y1="-33.49881501559038" x2="290.0000000000001" y2="-23.924932925590383" style="stroke:rgb(150,150,150);" />

<line x1="280.0000000000001" y1="0" x2="290.0000000000001" y2="0" />

<line x1="280.0000000000001" y1="-98.54497299884602" x2="290.0000000000001" y2="-99.27129909884601" style="stroke:rgb(0,100,0);" />

<line x1="290.0000000000001" y1="-23.924932921398113" x2="300.0000000000001" y2="-14.11200080139811" style="stroke:rgb(150,150,150);" />

<line x1="290.0000000000001" y1="0" x2="300.0000000000001" y2="0" />

<line x1="290.0000000000001" y1="-99.27129910375886" x2="300.0000000000001" y2="-99.74949866375886" style="stroke:rgb(0,100,0);" />

<line x1="300.0000000000001" y1="-14.112000805986591" x2="310.0000000000001" y2="-4.158066245986591" style="stroke:rgb(150,150,150);" />

<line x1="300.0000000000001" y1="0" x2="310.0000000000001" y2="0" />

<line x1="300.0000000000001" y1="-99.74949866040545" x2="310.0000000000001" y2="-99.97837642040544" style="stroke:rgb(0,100,0);" />

<line x1="310.0000000000001" y1="-4.158066243328916" x2="320.00000000000017" y2="5.837414346671084" style="stroke:rgb(150,150,150);" />

<line x1="310.0000000000001" y1="0" x2="320.00000000000017" y2="0" />

<line x1="310.0000000000001" y1="-99.9783764189357" x2="320.00000000000017" y2="-99.95736030893569" style="stroke:rgb(0,100,0);" />

<line x1="320.00000000000017" y1="5.837414342758142" x2="330.00000000000017" y2="15.774569412758144" style="stroke:rgb(150,150,150);" />

<line x1="320.00000000000017" y1="0" x2="330.00000000000017" y2="0" />

<line x1="320.00000000000017" y1="-99.95736030415051" x2="330.00000000000017" y2="-99.68650284415051" style="stroke:rgb(0,100,0);" />

<line x1="330.00000000000017" y1="15.774569414324995" x2="340.00000000000017" y2="25.554110204325" style="stroke:rgb(150,150,150);" />

<line x1="330.00000000000017" y1="0" x2="340.00000000000017" y2="0" />

<line x1="330.00000000000017" y1="-99.68650284539187" x2="340.00000000000017" y2="-99.16648104539188" style="stroke:rgb(0,100,0);" />

<line x1="340.00000000000017" y1="25.554110202683294" x2="350.00000000000017" y2="35.07832277268329" style="stroke:rgb(150,150,150);" />

<line x1="340.00000000000017" y1="0" x2="350.00000000000017" y2="0" />

<line x1="340.00000000000017" y1="-99.16648104524684" x2="350.00000000000017" y2="-98.39859468524685" style="stroke:rgb(0,100,0);" />

<line x1="350.00000000000017" y1="35.07832276896215" x2="360.00000000000017" y2="44.25204432896215" style="stroke:rgb(150,150,150);" />

<line x1="350.00000000000017" y1="0" x2="360.00000000000017" y2="0" />

<line x1="350.00000000000017" y1="-98.39859468739367" x2="360.00000000000017" y2="-97.38476308739367" style="stroke:rgb(0,100,0);" />

<line x1="360.00000000000017" y1="44.25204432948541" x2="370.00000000000017" y2="52.98361408948541" style="stroke:rgb(150,150,150);" />

<line x1="360.00000000000017" y1="0" x2="370.00000000000017" y2="0" />

<line x1="360.00000000000017" y1="-97.3847630878195" x2="370.00000000000017" y2="-96.12752029781949" style="stroke:rgb(0,100,0);" />

<line x1="370.00000000000017" y1="52.983614090849485" x2="380.0000000000002" y2="61.18578909084948" style="stroke:rgb(150,150,150);" />

<line x1="370.00000000000017" y1="0" x2="380.0000000000002" y2="0" />

<line x1="370.00000000000017" y1="-96.12752029752997" x2="380.0000000000002" y2="-94.63000876752997" style="stroke:rgb(0,100,0);" />

<line x1="380.0000000000002" y1="61.18578909427207" x2="390.0000000000002" y2="68.77661591427207" style="stroke:rgb(150,150,150);" />

<line x1="380.0000000000002" y1="0" x2="390.0000000000002" y2="0" />

<line x1="380.0000000000002" y1="-94.63000876874142" x2="390.0000000000002" y2="-92.89597149874142" style="stroke:rgb(0,100,0);" />

<line x1="390.0000000000002" y1="68.77661591839754" x2="400.00000000000017" y2="75.68024952839754" style="stroke:rgb(150,150,150);" />

<line x1="390.0000000000002" y1="0" x2="400.00000000000017" y2="0" />

<line x1="390.0000000000002" y1="-92.89597150038689" x2="400.00000000000017" y2="-90.92974268038688" style="stroke:rgb(0,100,0);" />

<line x1="400.00000000000017" y1="75.68024953079295" x2="410.0000000000001" y2="81.82771111079295" style="stroke:rgb(150,150,150);" />

<line x1="400.00000000000017" y1="0" x2="410.0000000000001" y2="0" />

<line x1="400.00000000000017" y1="-90.92974268256813" x2="410.0000000000001" y2="-88.73623686256813" style="stroke:rgb(0,100,0);" />

<line x1="410.0000000000001" y1="81.82771110644114" x2="420.0000000000001" y2="87.15757723644114" style="stroke:rgb(150,150,150);" />

<line x1="410.0000000000001" y1="0" x2="420.0000000000001" y2="0" />

<line x1="410.0000000000001" y1="-88.73623686333751" x2="420.0000000000001" y2="-86.3209366633375" style="stroke:rgb(0,100,0);" />

<line x1="420.0000000000001" y1="87.15757724135887" x2="430.00000000000006" y2="91.61659367135886" style="stroke:rgb(150,150,150);" />

<line x1="420.0000000000001" y1="0" x2="430.00000000000006" y2="0" />

<line x1="420.0000000000001" y1="-86.32093666488736" x2="430.00000000000006" y2="-83.68987907488736" style="stroke:rgb(0,100,0);" />

<line x1="430.00000000000006" y1="91.61659367494552" x2="440.00000000000006" y2="95.16020738494552" style="stroke:rgb(150,150,150);" />

<line x1="430.00000000000006" y1="0" x2="440.00000000000006" y2="0" />

<line x1="430.00000000000006" y1="-83.68987907984975" x2="440.00000000000006" y2="-80.84964037984975" style="stroke:rgb(0,100,0);" />

<line x1="440.00000000000006" y1="95.1602073889516" x2="450.0" y2="97.75301176895161" style="stroke:rgb(150,150,150);" />

<line x1="440.00000000000006" y1="0" x2="450.0" y2="0" />

<line x1="440.00000000000006" y1="-80.849640381959" x2="450.0" y2="-77.80731969195901" style="stroke:rgb(0,100,0);" />

<line x1="450.0" y1="97.7530117665097" x2="459.99999999999994" y2="99.3691003665097" style="stroke:rgb(150,150,150);" />

<line x1="450.0" y1="0" x2="459.99999999999994" y2="0" />

<line x1="450.0" y1="-77.80731968879212" x2="459.99999999999994" y2="-74.57052121879212" style="stroke:rgb(0,100,0);" />

<line x1="459.99999999999994" y1="99.36910036334645" x2="469.99999999999994" y2="99.99232575334645" style="stroke:rgb(150,150,150);" />

<line x1="459.99999999999994" y1="0" x2="469.99999999999994" y2="0" />

<line x1="459.99999999999994" y1="-74.57052121767202" x2="469.99999999999994" y2="-71.14733527767203" style="stroke:rgb(0,100,0);" />

<line x1="469.99999999999994" y1="99.99232575641008" x2="479.9999999999999" y2="99.61646088641008" style="stroke:rgb(150,150,150);" />

<line x1="469.99999999999994" y1="0" x2="479.9999999999999" y2="0" />

<line x1="469.99999999999994" y1="-71.14733527908447" x2="479.9999999999999" y2="-67.54631805908447" style="stroke:rgb(0,100,0);" />

<line x1="479.9999999999999" y1="99.61646088358408" x2="489.9999999999999" y2="98.24526126358408" style="stroke:rgb(150,150,150);" />

<line x1="479.9999999999999" y1="0" x2="489.9999999999999" y2="0" />

<line x1="479.9999999999999" y1="-67.54631805511512" x2="489.9999999999999" y2="-63.77647021511513" style="stroke:rgb(0,100,0);" />

<line x1="489.9999999999999" y1="98.24526126243327" x2="499.99999999999983" y2="95.89242746243329" style="stroke:rgb(150,150,150);" />

<line x1="489.9999999999999" y1="0" x2="499.99999999999983" y2="0" />

<line x1="489.9999999999999" y1="-63.77647021345043" x2="499.99999999999983" y2="-59.84721441345043" style="stroke:rgb(0,100,0);" />

<line x1="499.99999999999983" y1="95.8924274663139" x2="509.9999999999998" y2="92.5814682363139" style="stroke:rgb(150,150,150);" />

<line x1="499.99999999999983" y1="0" x2="509.9999999999998" y2="0" />

<line x1="499.99999999999983" y1="-59.84721441039572" x2="509.9999999999998" y2="-55.768371740395715" style="stroke:rgb(0,100,0);" />

<line x1="509.9999999999998" y1="92.58146823277332" x2="519.9999999999998" y2="88.3454655727733" style="stroke:rgb(150,150,150);" />

<line x1="509.9999999999998" y1="0" x2="519.9999999999998" y2="0" />

<line x1="509.9999999999998" y1="-55.76837173914178" x2="519.9999999999998" y2="-51.55013717914178" style="stroke:rgb(0,100,0);" />

<line x1="519.9999999999998" y1="88.34546557201544" x2="529.9999999999998" y2="83.22674422201544" style="stroke:rgb(150,150,150);" />

<line x1="519.9999999999998" y1="0" x2="529.9999999999998" y2="0" />

<line x1="519.9999999999998" y1="-51.55013718214653" x2="529.9999999999998" y2="-47.20305413214653" style="stroke:rgb(0,100,0);" />

<line x1="529.9999999999998" y1="83.22674422239027" x2="539.9999999999997" y2="77.27644875239027" style="stroke:rgb(150,150,150);" />

<line x1="529.9999999999998" y1="0" x2="539.9999999999997" y2="0" />

<line x1="529.9999999999998" y1="-47.203054128988384" x2="539.9999999999997" y2="-42.73798801898838" style="stroke:rgb(0,100,0);" />

<line x1="539.9999999999997" y1="77.27644875559893" x2="549.9999999999997" y2="70.55403255559894" style="stroke:rgb(150,150,150);" />

<line x1="539.9999999999997" y1="0" x2="549.9999999999997" y2="0" />

<line x1="539.9999999999997" y1="-42.73798802338314" x2="549.9999999999997" y2="-38.16609920338314" style="stroke:rgb(0,100,0);" />

<line x1="549.9999999999997" y1="70.55403255703945" x2="559.9999999999997" y2="63.12666378703945" style="stroke:rgb(150,150,150);" />

<line x1="549.9999999999997" y1="0" x2="559.9999999999997" y2="0" />

<line x1="549.9999999999997" y1="-38.16609920523334" x2="559.9999999999997" y2="-33.49881501523333" style="stroke:rgb(0,100,0);" />

<line x1="559.9999999999997" y1="63.12666378723243" x2="569.9999999999995" y2="55.06855425723243" style="stroke:rgb(150,150,150);" />

<line x1="559.9999999999997" y1="0" x2="569.9999999999995" y2="0" />

<line x1="559.9999999999997" y1="-33.49881501559068" x2="569.9999999999995" y2="-28.747801235590675" style="stroke:rgb(0,100,0);" />

<line x1="569.9999999999995" y1="55.068554259764134" x2="579.9999999999995" y2="46.460217939764135" style="stroke:rgb(150,150,150);" />

<line x1="569.9999999999995" y1="0" x2="579.9999999999995" y2="0" />

<line x1="569.9999999999995" y1="-28.747801234254656" x2="579.9999999999995" y2="-23.924932924254655" style="stroke:rgb(0,100,0);" />

<line x1="579.9999999999995" y1="46.46021794137613" x2="589.9999999999995" y2="37.38766648137613" style="stroke:rgb(150,150,150);" />

<line x1="579.9999999999995" y1="0" x2="589.9999999999995" y2="0" />

<line x1="579.9999999999995" y1="-23.924932921398458" x2="589.9999999999995" y2="-19.042264731398458" style="stroke:rgb(0,100,0);" />

<line x1="589.9999999999995" y1="37.3876664830241" x2="599.9999999999994" y2="27.941549823024097" style="stroke:rgb(150,150,150);" />

<line x1="589.9999999999995" y1="0" x2="599.9999999999994" y2="0" />

<line x1="589.9999999999995" y1="-19.042264736102968" x2="599.9999999999994" y2="-14.112000806102968" style="stroke:rgb(0,100,0);" />

<line x1="599.9999999999994" y1="27.941549819893098" x2="609.9999999999994" y2="18.216250429893098" style="stroke:rgb(150,150,150);" />

<line x1="599.9999999999994" y1="0" x2="609.9999999999994" y2="0" />

<line x1="599.9999999999994" y1="-14.112000805986986" x2="609.9999999999994" y2="-9.146464225986985" style="stroke:rgb(0,100,0);" />

<line x1="609.9999999999994" y1="18.216250427210113" x2="619.9999999999994" y2="8.308940277210112" style="stroke:rgb(150,150,150);" />

<line x1="609.9999999999994" y1="0" x2="619.9999999999994" y2="0" />

<line x1="609.9999999999994" y1="-9.146464223243985" x2="619.9999999999994" y2="-4.158066243243985" style="stroke:rgb(0,100,0);" />

<line x1="619.9999999999994" y1="8.30894028175026" x2="629.9999999999993" y2="-1.6813900482497397" style="stroke:rgb(150,150,150);" />

<line x1="619.9999999999994" y1="0" x2="629.9999999999993" y2="0" />

<line x1="619.9999999999994" y1="-4.15806624332936" x2="629.9999999999993" y2="0.8407247366706401" style="stroke:rgb(0,100,0);" />

<line x1="629.9999999999993" y1="-1.6813900484343496" x2="639.9999999999993" y2="-11.65492048843435" style="stroke:rgb(150,150,150);" />

<line x1="629.9999999999993" y1="0" x2="639.9999999999993" y2="0" />

<line x1="629.9999999999993" y1="0.840724736714551" x2="639.9999999999993" y2="5.83741434671455" style="stroke:rgb(0,100,0);" />

<line x1="639.9999999999993" y1="-11.65492048504866" x2="649.9999999999993" y2="-21.51199880504866" style="stroke:rgb(150,150,150);" />

<line x1="639.9999999999993" y1="0" x2="649.9999999999993" y2="0" />

<line x1="639.9999999999993" y1="5.837414342757654" x2="649.9999999999993" y2="10.819513452757654" style="stroke:rgb(0,100,0);" />

<line x1="649.9999999999993" y1="-21.51199880878086" x2="659.9999999999992" y2="-31.15413634878086" style="stroke:rgb(150,150,150);" />

<line x1="649.9999999999993" y1="0" x2="659.9999999999992" y2="0" />

<line x1="649.9999999999993" y1="10.819513453010485" x2="659.9999999999992" y2="15.774569413010486" style="stroke:rgb(0,100,0);" />

<line x1="659.9999999999992" y1="-31.154136351337108" x2="669.9999999999992" y2="-40.48499206133711" style="stroke:rgb(150,150,150);" />

<line x1="659.9999999999992" y1="0" x2="669.9999999999992" y2="0" />

<line x1="659.9999999999992" y1="15.774569414324468" x2="669.9999999999992" y2="20.69019716432447" style="stroke:rgb(0,100,0);" />

<line x1="669.9999999999992" y1="-40.484992061659106" x2="679.9999999999992" y2="-49.411335111659106" style="stroke:rgb(150,150,150);" />

<line x1="669.9999999999992" y1="0" x2="679.9999999999992" y2="0" />

<line x1="669.9999999999992" y1="20.690197167339587" x2="679.9999999999992" y2="25.554110207339587" style="stroke:rgb(0,100,0);" />

<line x1="679.9999999999992" y1="-49.41133511386012" x2="689.9999999999991" y2="-57.84397643386012" style="stroke:rgb(150,150,150);" />

<line x1="679.9999999999992" y1="0" x2="689.9999999999991" y2="0" />

<line x1="679.9999999999992" y1="25.55411020268274" x2="689.9999999999991" y2="30.35415127268274" style="stroke:rgb(0,100,0);" />

<line x1="689.9999999999991" y1="-57.84397643881929" x2="699.9999999999991" y2="-65.69865986881929" style="stroke:rgb(150,150,150);" />

<line x1="689.9999999999991" y1="0" x2="699.9999999999991" y2="0" />

<line x1="689.9999999999991" y1="30.35415127084251" x2="699.9999999999991" y2="35.07832277084251" style="stroke:rgb(0,100,0);" />

<line x1="699.9999999999991" y1="-65.69865987187823" x2="709.9999999999991" y2="-72.89690401187823" style="stroke:rgb(150,150,150);" />

<line x1="699.9999999999991" y1="0" x2="709.9999999999991" y2="0" />

<line x1="699.9999999999991" y1="35.07832276896157" x2="709.9999999999991" y2="39.714816728961566" style="stroke:rgb(0,100,0);" />

<line x1="709.9999999999991" y1="-72.89690401258699" x2="719.9999999999991" y2="-79.36678638258698" style="stroke:rgb(150,150,150);" />

<line x1="709.9999999999991" y1="0" x2="719.9999999999991" y2="0" />

<line x1="709.9999999999991" y1="39.71481672859557" x2="719.9999999999991" y2="44.25204432859557" style="stroke:rgb(0,100,0);" />

<line x1="719.9999999999991" y1="-79.36678638491472" x2="729.999999999999" y2="-85.04366206491473" style="stroke:rgb(150,150,150);" />

<line x1="719.9999999999991" y1="0" x2="729.999999999999" y2="0" />

<line x1="719.9999999999991" y1="44.25204432948481" x2="729.999999999999" y2="48.678664869484805" style="stroke:rgb(0,100,0);" />

<line x1="729.999999999999" y1="-85.04366206285593" x2="739.999999999999" y2="-89.87080958285593" style="stroke:rgb(150,150,150);" />

<line x1="729.999999999999" y1="0" x2="739.999999999999" y2="0" />

<line x1="729.999999999999" y1="48.678664865569516" x2="739.999999999999" y2="52.98361409556952" style="stroke:rgb(0,100,0);" />

<line x1="739.999999999999" y1="-89.87080958116222" x2="749.999999999999" y2="-93.79999768116222" style="stroke:rgb(150,150,150);" />

<line x1="739.999999999999" y1="0" x2="749.999999999999" y2="0" />

<line x1="739.999999999999" y1="52.98361409084889" x2="749.999999999999" y2="57.15613187084888" style="stroke:rgb(0,100,0);" />

<line x1="749.999999999999" y1="-93.79999767747351" x2="759.9999999999989" y2="-96.79196720747352" style="stroke:rgb(150,150,150);" />

<line x1="749.999999999999" y1="0" x2="759.9999999999989" y2="0" />

<line x1="749.999999999999" y1="57.15613187423394" x2="759.9999999999989" y2="61.18578909423395" style="stroke:rgb(0,100,0);" />

<line x1="759.9999999999989" y1="-96.79196720314836" x2="769.9999999999989" y2="-98.81682338314836" style="stroke:rgb(150,150,150);" />

<line x1="759.9999999999989" y1="0" x2="769.9999999999989" y2="0" />

<line x1="759.9999999999989" y1="61.18578909427147" x2="769.9999999999989" y2="65.06251370427148" style="stroke:rgb(0,100,0);" />

<line x1="769.9999999999989" y1="-98.81682338769986" x2="779.9999999999989" y2="-99.85433453769986" style="stroke:rgb(150,150,150);" />

<line x1="769.9999999999989" y1="0" x2="779.9999999999989" y2="0" />

<line x1="769.9999999999989" y1="65.0625137065163" x2="779.9999999999989" y2="68.7766159165163" style="stroke:rgb(0,100,0);" />

<line x1="779.9999999999989" y1="-99.85433453746043" x2="789.9999999999987" y2="-99.89413418746044" style="stroke:rgb(150,150,150);" />

<line x1="779.9999999999989" y1="0" x2="789.9999999999987" y2="0" />

<line x1="779.9999999999989" y1="68.77661591839696" x2="789.9999999999987" y2="72.31881240839697" style="stroke:rgb(0,100,0);" />

<line x1="789.9999999999987" y1="-99.89413418397726" x2="799.9999999999987" y2="-98.93582466397726" style="stroke:rgb(150,150,150);" />

<line x1="789.9999999999987" y1="0" x2="799.9999999999987" y2="0" />

<line x1="789.9999999999987" y1="72.31881240865079" x2="799.9999999999987" y2="75.68024952865078" style="stroke:rgb(0,100,0);" />

<line x1="799.9999999999987" y1="-98.93582466233836" x2="809.9999999999987" y2="-96.98898108233836" style="stroke:rgb(150,150,150);" />

<line x1="799.9999999999987" y1="0" x2="809.9999999999987" y2="0" />

<line x1="799.9999999999987" y1="75.68024953079242" x2="809.9999999999987" y2="78.85252544079242" style="stroke:rgb(0,100,0);" />

<line x1="809.9999999999987" y1="-96.98898108450894" x2="819.9999999999986" y2="-94.07305566450894" style="stroke:rgb(150,150,150);" />

<line x1="809.9999999999987" y1="0" x2="819.9999999999986" y2="0" />

<line x1="809.9999999999987" y1="78.85252544261911" x2="819.9999999999986" y2="81.82771110261912" style="stroke:rgb(0,100,0);" />

<line x1="819.9999999999986" y1="-94.07305566797774" x2="829.9999999999986" y2="-90.21718337797773" style="stroke:rgb(150,150,150);" />

<line x1="819.9999999999986" y1="0" x2="829.9999999999986" y2="0" />

<line x1="819.9999999999986" y1="81.82771110644067" x2="829.9999999999986" y2="84.59837010644067" style="stroke:rgb(0,100,0);" />

<line x1="829.9999999999986" y1="-90.21718337562994" x2="839.9999999999986" y2="-85.45989080562994" style="stroke:rgb(150,150,150);" />

<line x1="829.9999999999986" y1="0" x2="839.9999999999986" y2="0" />

<line x1="829.9999999999986" y1="84.59837010754427" x2="839.9999999999986" y2="87.15757723754427" style="stroke:rgb(0,100,0);" />

<line x1="839.9999999999986" y1="-85.45989080882879" x2="849.9999999999986" y2="-79.84871125882879" style="stroke:rgb(150,150,150);" />

<line x1="839.9999999999986" y1="0" x2="849.9999999999986" y2="0" />

<line x1="839.9999999999986" y1="87.15757724135847" x2="849.9999999999986" y2="89.49893582135846" style="stroke:rgb(0,100,0);" />

<line x1="849.9999999999986" y1="-79.84871126234988" x2="859.9999999999985" y2="-73.43970979234989" style="stroke:rgb(150,150,150);" />

<line x1="849.9999999999986" y1="0" x2="859.9999999999985" y2="0" />

<line x1="849.9999999999986" y1="89.49893582285804" x2="859.9999999999985" y2="91.61659367285804" style="stroke:rgb(0,100,0);" />

<line x1="859.9999999999985" y1="-73.4397097874123" x2="869.9999999999985" y2="-66.2969230074123" style="stroke:rgb(150,150,150);" />

<line x1="859.9999999999985" y1="0" x2="869.9999999999985" y2="0" />

<line x1="859.9999999999985" y1="91.61659367494521" x2="869.9999999999985" y2="93.5052577549452" style="stroke:rgb(0,100,0);" />

<line x1="869.9999999999985" y1="-66.2969230082194" x2="879.9999999999985" y2="-58.4917192882194" style="stroke:rgb(150,150,150);" />

<line x1="869.9999999999985" y1="0" x2="879.9999999999985" y2="0" />

<line x1="869.9999999999985" y1="93.50525775584465" x2="879.9999999999985" y2="95.16020738584466" style="stroke:rgb(0,100,0);" />

<line x1="879.9999999999985" y1="-58.49171928917747" x2="889.9999999999984" y2="-50.10208564917746" style="stroke:rgb(150,150,150);" />

<line x1="879.9999999999985" y1="0" x2="889.9999999999984" y2="0" />

<line x1="879.9999999999985" y1="95.16020738895136" x2="889.9999999999984" y2="96.57730605895136" style="stroke:rgb(0,100,0);" />

<line x1="889.9999999999984" y1="-50.10208564578985" x2="899.9999999999984" y2="-41.211848525789854" style="stroke:rgb(150,150,150);" />

<line x1="889.9999999999984" y1="0" x2="899.9999999999984" y2="0" />

<line x1="889.9999999999984" y1="96.57730606206367" x2="899.9999999999984" y2="97.75301176206366" style="stroke:rgb(0,100,0);" />

<line x1="899.9999999999984" y1="-41.211848524177114" x2="909.9999999999984" y2="-31.909836234177114" style="stroke:rgb(150,150,150);" />

<line x1="899.9999999999984" y1="0" x2="909.9999999999984" y2="0" />

<line x1="899.9999999999984" y1="97.75301176650953" x2="909.9999999999984" y2="98.68438584650954" style="stroke:rgb(0,100,0);" />

<line x1="909.9999999999984" y1="-31.909836234936726" x2="919.9999999999983" y2="-22.288991414936728" style="stroke:rgb(150,150,150);" />

<line x1="909.9999999999984" y1="0" x2="919.9999999999983" y2="0" />

<line x1="909.9999999999984" y1="98.68438585032354" x2="919.9999999999983" y2="99.36910036032353" style="stroke:rgb(0,100,0);" />

<line x1="919.9999999999983" y1="-22.288991410026323" x2="929.9999999999983" y2="-12.445442350026324" style="stroke:rgb(150,150,150);" />

<line x1="919.9999999999983" y1="0" x2="929.9999999999983" y2="0" />

<line x1="919.9999999999983" y1="99.36910036334635" x2="929.9999999999983" y2="99.80544387334635" style="stroke:rgb(0,100,0);" />

<line x1="929.9999999999983" y1="-12.445442350707934" x2="939.9999999999983" y2="-2.4775425407079332" style="stroke:rgb(150,150,150);" />

<line x1="929.9999999999983" y1="0" x2="939.9999999999983" y2="0" />

<line x1="929.9999999999983" y1="99.80544387588789" x2="939.9999999999983" y2="99.99232575588789" style="stroke:rgb(0,100,0);" />

<line x1="939.9999999999983" y1="-2.4775425453375526" x2="949.9999999999982" y2="7.515112044662447" style="stroke:rgb(150,150,150);" />

<line x1="939.9999999999983" y1="0" x2="949.9999999999982" y2="0" />

<line x1="939.9999999999983" y1="99.99232575641008" x2="949.9999999999982" y2="99.92927889641008" style="stroke:rgb(0,100,0);" />

<line x1="949.9999999999982" y1="7.515112046179159" x2="959.9999999999982" y2="17.43267812617916" style="stroke:rgb(150,150,150);" />

<line x1="949.9999999999982" y1="0" x2="959.9999999999982" y2="0" />

<line x1="949.9999999999982" y1="99.92927889753783" x2="959.9999999999982" y2="99.61646088753783" style="stroke:rgb(0,100,0);" />

<line x1="959.9999999999982" y1="17.432678122296213" x2="969.9999999999982" y2="27.176062642296213" style="stroke:rgb(150,150,150);" />

<line x1="959.9999999999982" y1="0" x2="969.9999999999982" y2="0" />

<line x1="959.9999999999982" y1="99.61646088358414" x2="969.9999999999982" y2="99.05465359358413" style="stroke:rgb(0,100,0);" />

<line x1="969.9999999999982" y1="27.176062641092535" x2="979.9999999999981" y2="36.647912921092534" style="stroke:rgb(150,150,150);" />

<line x1="969.9999999999982" y1="0" x2="979.9999999999981" y2="0" />

<line x1="969.9999999999982" y1="99.05465359667144" x2="979.9999999999981" y2="98.24526126667145" style="stroke:rgb(0,100,0);" />

<line x1="979.9999999999981" y1="36.64791292519102" x2="989.9999999999981" y2="45.75358937519102" style="stroke:rgb(150,150,150);" />

<line x1="979.9999999999981" y1="0" x2="989.9999999999981" y2="0" />

<line x1="979.9999999999981" y1="98.24526126243343" x2="989.9999999999981" y2="97.19030694243342" style="stroke:rgb(0,100,0);" />

<line x1="989.9999999999981" y1="45.753589377530396" x2="999.9999999999981" y2="54.40211108753039" style="stroke:rgb(150,150,150);" />

<line x1="989.9999999999981" y1="0" x2="999.9999999999981" y2="0" />

<line x1="989.9999999999981" y1="97.1903069401823" x2="999.9999999999981" y2="95.89242747018231" style="stroke:rgb(0,100,0);" />

<line x1="999.9999999999981" y1="54.40211108893534" x2="1009.999999999998" y2="62.507064888935346" style="stroke:rgb(150,150,150);" />

<line x1="999.9999999999981" y1="0" x2="1009.999999999998" y2="0" />

<line x1="999.9999999999981" y1="95.89242746631412" x2="1009.999999999998" y2="94.35486686631413" style="stroke:rgb(0,100,0);" />

<line x1="1009.999999999998" y1="62.50706488928668" x2="1019.999999999998" y2="69.98746875928667" style="stroke:rgb(150,150,150);" />

<line x1="1009.999999999998" y1="0" x2="1019.999999999998" y2="0" />

<line x1="1009.999999999998" y1="94.35486686359098" x2="1019.999999999998" y2="92.58146823359098" style="stroke:rgb(0,100,0);" />

<line x1="1019.999999999998" y1="69.98746875935285" x2="1029.999999999998" y2="76.76858097935283" style="stroke:rgb(150,150,150);" />

<line x1="1019.999999999998" y1="0" x2="1029.999999999998" y2="0" />

<line x1="1019.999999999998" y1="92.58146823277362" x2="1029.999999999998" y2="90.57666414277361" style="stroke:rgb(0,100,0);" />

<line x1="1029.999999999998" y1="76.76858097635689" x2="1039.999999999998" y2="82.78264690635689" style="stroke:rgb(150,150,150);" />

<line x1="1029.999999999998" y1="0" x2="1039.999999999998" y2="0" />

<line x1="1029.999999999998" y1="90.5766641468709" x2="1039.999999999998" y2="88.3454655768709" style="stroke:rgb(0,100,0);" />

<line x1="1039.999999999998" y1="82.78264690856417" x2="1049.999999999998" y2="87.96957599856418" style="stroke:rgb(150,150,150);" />

<line x1="1039.999999999998" y1="0" x2="1049.999999999998" y2="0" />

<line x1="1039.999999999998" y1="88.34546557201581" x2="1049.999999999998" y2="85.89344934201581" style="stroke:rgb(0,100,0);" />

<line x1="1049.999999999998" y1="87.96957599716599" x2="1059.9999999999977" y2="92.277542157166" style="stroke:rgb(150,150,150);" />

<line x1="1049.999999999998" y1="0" x2="1059.9999999999977" y2="0" />

<line x1="1049.999999999998" y1="85.89344934265975" x2="1059.9999999999977" y2="83.22674422265975" style="stroke:rgb(0,100,0);" />

<line x1="1059.9999999999977" y1="92.27754216127984" x2="1069.9999999999977" y2="95.66350163127984" style="stroke:rgb(150,150,150);" />

<line x1="1059.9999999999977" y1="0" x2="1069.9999999999977" y2="0" />

<line x1="1059.9999999999977" y1="83.22674422239072" x2="1069.9999999999977" y2="80.3520155823907" style="stroke:rgb(0,100,0);" />

<line x1="1069.9999999999977" y1="95.66350162701816" x2="1079.9999999999977" y2="98.09362300701817" style="stroke:rgb(150,150,150);" />

<line x1="1069.9999999999977" y1="0" x2="1079.9999999999977" y2="0" />

<line x1="1069.9999999999977" y1="80.35201558521622" x2="1079.9999999999977" y2="77.27644875521622" style="stroke:rgb(0,100,0);" />

<line x1="1079.9999999999977" y1="98.0936230066487" x2="1089.9999999999977" y2="99.5436253266487" style="stroke:rgb(150,150,150);" />

<line x1="1079.9999999999977" y1="0" x2="1089.9999999999977" y2="0" />

<line x1="1079.9999999999977" y1="77.27644875559945" x2="1089.9999999999977" y2="74.00773104559944" style="stroke:rgb(0,100,0);" />

<line x1="1089.9999999999977" y1="99.54362533063752" x2="1099.9999999999977" y2="99.99902065063752" style="stroke:rgb(150,150,150);" />

<line x1="1089.9999999999977" y1="0" x2="1099.9999999999977" y2="0" />

<line x1="1089.9999999999977" y1="74.00773104889021" x2="1099.9999999999977" y2="70.55403255889021" style="stroke:rgb(0,100,0);" />

<line x1="1099.9999999999977" y1="99.99902065507035" x2="1109.9999999999977" y2="99.45525882507036" style="stroke:rgb(150,150,150);" />

<line x1="1099.9999999999977" y1="0" x2="1109.9999999999977" y2="0" />

<line x1="1099.9999999999977" y1="70.55403255704002" x2="1109.9999999999977" y2="66.92398572704002" style="stroke:rgb(0,100,0);" />

<line x1="1109.9999999999977" y1="99.45525882039917" x2="1119.9999999999977" y2="97.91777291039917" style="stroke:rgb(150,150,150);" />

<line x1="1109.9999999999977" y1="0" x2="1119.9999999999977" y2="0" />

<line x1="1109.9999999999977" y1="66.92398572762706" x2="1119.9999999999977" y2="63.12666378762706" style="stroke:rgb(0,100,0);" />

<line x1="1119.9999999999977" y1="97.9177729151322" x2="1129.9999999999975" y2="95.4019249951322" style="stroke:rgb(150,150,150);" />

<line x1="1119.9999999999977" y1="0" x2="1129.9999999999975" y2="0" />

<line x1="1119.9999999999977" y1="63.12666378723305" x2="1129.9999999999975" y2="59.17155806723306" style="stroke:rgb(0,100,0);" />

<line x1="1129.9999999999975" y1="95.40192499020964" x2="1139.9999999999975" y2="91.93285257020965" style="stroke:rgb(150,150,150);" />

<line x1="1129.9999999999975" y1="0" x2="1139.9999999999975" y2="0" />

<line x1="1129.9999999999975" y1="59.171558063101934" x2="1139.9999999999975" y2="55.06855426310193" style="stroke:rgb(0,100,0);" />

<line x1="1139.9999999999975" y1="91.93285256646855" x2="1149.9999999999975" y2="87.54521746646856" style="stroke:rgb(150,150,150);" />

<line x1="1139.9999999999975" y1="0" x2="1149.9999999999975" y2="0" />

<line x1="1139.9999999999975" y1="55.0685542597648" x2="1149.9999999999975" y2="50.8279077497648" style="stroke:rgb(0,100,0);" />

<line x1="1149.9999999999975" y1="87.54521746884404" x2="1159.9999999999975" y2="82.28285949884405" style="stroke:rgb(150,150,150);" />

<line x1="1149.9999999999975" y1="0" x2="1159.9999999999975" y2="0" />

<line x1="1149.9999999999975" y1="50.8279077499269" x2="1159.9999999999975" y2="46.460217939926906" style="stroke:rgb(0,100,0);" />

<line x1="1159.9999999999975" y1="82.28285949687229" x2="1169.9999999999975" y2="76.1983583968723" style="stroke:rgb(150,150,150);" />

<line x1="1159.9999999999975" y1="0" x2="1169.9999999999975" y2="0" />

<line x1="1159.9999999999975" y1="46.46021794137683" x2="1169.9999999999975" y2="41.976401781376836" style="stroke:rgb(0,100,0);" />

<line x1="1169.9999999999975" y1="76.19835839190495" x2="1179.9999999999975" y2="69.35250848190493" style="stroke:rgb(150,150,150);" />

<line x1="1169.9999999999975" y1="0" x2="1179.9999999999975" y2="0" />

<line x1="1169.9999999999975" y1="41.97640178398709" x2="1179.9999999999975" y2="37.38766648398709" style="stroke:rgb(0,100,0);" />

<line x1="1179.9999999999975" y1="69.35250847771415" x2="1189.9999999999973" y2="61.813711227714165" style="stroke:rgb(150,150,150);" />

<line x1="1179.9999999999975" y1="0" x2="1189.9999999999973" y2="0" />

<line x1="1179.9999999999975" y1="37.38766648302484" x2="1189.9999999999973" y2="32.70548148302484" style="stroke:rgb(0,100,0);" />

<line x1="1189.9999999999973" y1="61.813711223705425" x2="1199.9999999999973" y2="53.65729180370542" style="stroke:rgb(150,150,150);" />

<line x1="1189.9999999999973" y1="0" x2="1199.9999999999973" y2="0" />

<line x1="1189.9999999999973" y1="32.70548148697532" x2="1199.9999999999973" y2="27.941549816975325" style="stroke:rgb(0,100,0);" />

<line x1="1199.9999999999973" y1="53.65729180004575" x2="1209.9999999999973" y2="44.964746450045745" style="stroke:rgb(150,150,150);" />

<line x1="1199.9999999999973" y1="0" x2="1209.9999999999973" y2="0" />

<line x1="1199.9999999999973" y1="27.94154981989387" x2="1209.9999999999973" y2="23.107778829893867" style="stroke:rgb(0,100,0);" />

<line x1="1209.9999999999973" y1="44.96474645346253" x2="1219.9999999999973" y2="35.82292822346253" style="stroke:rgb(150,150,150);" />

<line x1="1209.9999999999973" y1="0" x2="1219.9999999999973" y2="0" />

<line x1="1209.9999999999973" y1="23.10777882994052" x2="1219.9999999999973" y2="18.21625042994052" style="stroke:rgb(0,100,0);" />

<line x1="1219.9999999999973" y1="35.82292822368536" x2="1229.9999999999973" y2="26.323179133685358" style="stroke:rgb(150,150,150);" />

<line x1="1219.9999999999973" y1="0" x2="1229.9999999999973" y2="0" />

<line x1="1219.9999999999973" y1="18.2162504272109" x2="1229.9999999999973" y2="13.279190887210898" style="stroke:rgb(0,100,0);" />

<line x1="1229.9999999999973" y1="26.323179136582837" x2="1239.9999999999973" y2="16.560417546582833" style="stroke:rgb(150,150,150);" />

<line x1="1229.9999999999973" y1="0" x2="1239.9999999999973" y2="0" />

<line x1="1229.9999999999973" y1="13.279190885253081" x2="1239.9999999999973" y2="8.30894028525308" style="stroke:rgb(0,100,0);" />

<line x1="1239.9999999999973" y1="16.56041754483374" x2="1249.9999999999973" y2="6.632189734833742" style="stroke:rgb(150,150,150);" />

<line x1="1239.9999999999973" y1="0" x2="1249.9999999999973" y2="0" />

<line x1="1239.9999999999973" y1="8.308940281751056" x2="1249.9999999999973" y2="3.317921651751057" style="stroke:rgb(0,100,0);" />

<line x1="0" y1="0" x2="1250.0" y2="0" />

<line x1="0" y1="-80.0" x2="1250.0" y2="-80.0" style="stroke:red;" />

</g></svg>