<?xml version="1.0" standalone="no"?> 
<!DOCTYPE svg PUBLIC "-//W3C//DTD SVG 1.1//EN" "http://www.w3.org/Graphics/SVG/1.1/DTD/svg11.dtd">

<svg viewBox="-79.4999999999999 -220.00000000000003 1748.9999999999973 440.00000000000006 " width="1750.59" height="440.4"  version="1.1" xmlns="http://www.w3.org/2000/svg">
 <g stroke="rgb(0,0,0)" fill="rgba(255,255,255,0)" style="fill-opacity:1;fill:none" >
<line x1="0" y1="-100.0" x2="10.0" y2="-95.10565163" style="stroke:rgb(150,150,150);" />

<line x1="0" y1="0.0" x2="10.0" y2="-7.84590957" />

<line x1="0" y1="0.0" x2="10.0" y2="-0.61558297" style="stroke:rgb(0,100,0);" />

<line x1="10.0" y1="-95.10565162951535" x2="20.0" y2="-80.90169943951535" style="stroke:rgb(150,150,150);" />

<line x1="10.0" y1="-7.845909572784494" x2="20.0" y2="-15.643446502784494" />

<line x1="10.0" y1="-0.6155829702431115" x2="20.0" y2="-2.4471741802431115" style="stroke:rgb(0,100,0);" />

<line x1="20.0" y1="-80.90169943749474" x2="30.000000000000004" y2="-58.77852522749475" style="stroke:rgb(150,150,150);" />

<line x1="20.0" y1="-15.643446504023087" x2="30.000000000000004" y2="-23.344536384023087" />

<line x1="20.0" y1="-2.447174185242323" x2="30.000000000000004" y2="-5.449673795242323" style="stroke:rgb(0,100,0);" />

<line x1="30.000000000000004" y1="-58.7785252292473" x2="40.0" y2="-30.901699439247306" style="stroke:rgb(150,150,150);" />

<line x1="30.000000000000004" y1="-23.34453638559054" x2="40.0" y2="-30.90169943559054" />

<line x1="30.000000000000004" y1="-5.449673790581611" x2="40.0" y2="-9.549150280581612" style="stroke:rgb(0,100,0);" />

<line x1="40.0" y1="-30.901699437494745" x2="50.0" y2="2.5052571128725276e-09" style="stroke:rgb(150,150,150);" />

<line x1="40.0" y1="-30.901699437494738" x2="50.0" y2="-38.26834323749474" />

<line x1="40.0" y1="-9.549150281252627" x2="50.0" y2="-14.644660941252626" style="stroke:rgb(0,100,0);" />

<line x1="50.0" y1="-6.123233995736766e-15" x2="60.0" y2="30.901699439999998" style="stroke:rgb(150,150,150);" />

<line x1="50.0" y1="-38.268343236508976" x2="60.0" y2="-45.39904997650898" />

<line x1="50.0" y1="-14.644660940672626" x2="60.0" y2="-20.610737380672628" style="stroke:rgb(0,100,0);" />

<line x1="60.0" y1="30.901699437494734" x2="70.0" y2="58.77852522749474" style="stroke:rgb(150,150,150);" />

<line x1="60.0" y1="-45.399049973954675" x2="70.0" y2="-52.24985647395468" />

<line x1="60.0" y1="-20.610737385376343" x2="70.0" y2="-27.300475015376346" style="stroke:rgb(0,100,0);" />

<line x1="70.0" y1="58.7785252292473" x2="80.0" y2="80.9016994392473" style="stroke:rgb(150,150,150);" />

<line x1="70.0" y1="-52.24985647159488" x2="80.0" y2="-58.778525231594884" />

<line x1="70.0" y1="-27.300475013022663" x2="80.0" y2="-34.54915028302266" style="stroke:rgb(0,100,0);" />

<line x1="80.0" y1="80.90169943749473" x2="89.99999999999999" y2="95.10565162749474" style="stroke:rgb(150,150,150);" />

<line x1="80.0" y1="-58.778525229247315" x2="89.99999999999999" y2="-64.94480482924732" />

<line x1="80.0" y1="-34.54915028125263" x2="89.99999999999999" y2="-42.17827675125263" style="stroke:rgb(0,100,0);" />

<line x1="89.99999999999999" y1="95.10565162951534" x2="99.99999999999999" y2="99.99999999951534" style="stroke:rgb(150,150,150);" />

<line x1="89.99999999999999" y1="-64.94480483301835" x2="99.99999999999999" y2="-70.71067812301835" />

<line x1="89.99999999999999" y1="-42.17827674798845" x2="99.99999999999999" y2="-49.999999997988446" style="stroke:rgb(0,100,0);" />

<line x1="99.99999999999999" y1="100.0" x2="109.99999999999999" y2="95.10565163" style="stroke:rgb(150,150,150);" />

<line x1="99.99999999999999" y1="-70.71067811865474" x2="109.99999999999999" y2="-76.04059655865476" />

<line x1="99.99999999999999" y1="-49.999999999999986" x2="109.99999999999999" y2="-57.82172324999999" style="stroke:rgb(0,100,0);" />

<line x1="109.99999999999999" y1="95.10565162951538" x2="120.0" y2="80.90169943951537" style="stroke:rgb(150,150,150);" />

<line x1="109.99999999999999" y1="-76.04059656000308" x2="120.0" y2="-80.90169944000309" />

<line x1="109.99999999999999" y1="-57.82172325201154" x2="120.0" y2="-65.45084972201154" style="stroke:rgb(0,100,0);" />

<line x1="120.0" y1="80.90169943749476" x2="130.0" y2="58.77852522749476" style="stroke:rgb(150,150,150);" />

<line x1="120.0" y1="-80.90169943749474" x2="130.0" y2="-85.26401643749475" />

<line x1="120.0" y1="-65.45084971874738" x2="130.0" y2="-72.69952498874737" style="stroke:rgb(0,100,0);" />

<line x1="130.0" y1="58.77852522924732" x2="140.0" y2="30.901699439247327" style="stroke:rgb(150,150,150);" />

<line x1="130.0" y1="-85.26401643540922" x2="140.0" y2="-89.10065241540921" />

<line x1="130.0" y1="-72.69952498697734" x2="140.0" y2="-79.38926261697733" style="stroke:rgb(0,100,0);" />

<line x1="140.0" y1="30.901699437494756" x2="150.00000000000003" y2="-2.5052460106422814e-09" style="stroke:rgb(150,150,150);" />

<line x1="140.0" y1="-89.10065241883677" x2="150.00000000000003" y2="-92.38795324883678" />

<line x1="140.0" y1="-79.38926261462366" x2="150.00000000000003" y2="-85.35533905462366" style="stroke:rgb(0,100,0);" />

<line x1="150.00000000000003" y1="-7.044813998280223e-14" x2="160.00000000000003" y2="-30.901699440000073" style="stroke:rgb(150,150,150);" />

<line x1="150.00000000000003" y1="-92.38795325112868" x2="160.00000000000003" y2="-95.10565163112868" />

<line x1="150.00000000000003" y1="-85.35533905932739" x2="160.00000000000003" y2="-90.4508497193274" style="stroke:rgb(0,100,0);" />

<line x1="160.00000000000003" y1="-30.901699437494806" x2="170.00000000000003" y2="-58.778525227494804" style="stroke:rgb(150,150,150);" />

<line x1="160.00000000000003" y1="-95.10565162951536" x2="170.00000000000003" y2="-97.23699203951537" />

<line x1="160.00000000000003" y1="-90.45084971874738" x2="170.00000000000003" y2="-94.55032620874738" style="stroke:rgb(0,100,0);" />

<line x1="170.00000000000003" y1="-58.77852522924737" x2="180.00000000000006" y2="-80.90169943924737" style="stroke:rgb(150,150,150);" />

<line x1="170.00000000000003" y1="-97.23699203976767" x2="180.00000000000006" y2="-98.76883405976767" />

<line x1="170.00000000000003" y1="-94.5503262094184" x2="180.00000000000006" y2="-97.5528258194184" style="stroke:rgb(0,100,0);" />

<line x1="180.00000000000006" y1="-80.90169943749484" x2="190.00000000000006" y2="-95.10565162749484" style="stroke:rgb(150,150,150);" />

<line x1="180.00000000000006" y1="-98.76883405951378" x2="190.00000000000006" y2="-99.69173336951378" />

<line x1="180.00000000000006" y1="-97.5528258147577" x2="190.00000000000006" y2="-99.3844170247577" style="stroke:rgb(0,100,0);" />

<line x1="190.00000000000006" y1="-95.1056516295154" x2="200.00000000000006" y2="-99.99999999951541" style="stroke:rgb(150,150,150);" />

<line x1="190.00000000000006" y1="-99.6917333733128" x2="200.00000000000006" y2="-100.00000000331279" />

<line x1="190.00000000000006" y1="-99.38441702975689" x2="200.00000000000006" y2="-99.99999999975688" style="stroke:rgb(0,100,0);" />

<line x1="200.00000000000006" y1="-100.0" x2="210.00000000000006" y2="-95.10565163" style="stroke:rgb(150,150,150);" />

<line x1="200.00000000000006" y1="-100.0" x2="210.00000000000006" y2="-99.69173337000001" />

<line x1="200.00000000000006" y1="-100.0" x2="210.00000000000006" y2="-99.38441703000001" style="stroke:rgb(0,100,0);" />

<line x1="210.00000000000006" y1="-95.10565162951531" x2="220.00000000000006" y2="-80.90169943951531" style="stroke:rgb(150,150,150);" />

<line x1="210.00000000000006" y1="-99.6917333733128" x2="220.00000000000006" y2="-98.7688340633128" />

<line x1="210.00000000000006" y1="-99.38441702975688" x2="220.00000000000006" y2="-97.55282581975688" style="stroke:rgb(0,100,0);" />

<line x1="220.00000000000006" y1="-80.90169943749466" x2="230.00000000000006" y2="-58.77852522749466" style="stroke:rgb(150,150,150);" />

<line x1="220.00000000000006" y1="-98.76883405951376" x2="230.00000000000006" y2="-97.23699203951377" />

<line x1="220.00000000000006" y1="-97.55282581475765" x2="230.00000000000006" y2="-94.55032620475767" style="stroke:rgb(0,100,0);" />

<line x1="230.00000000000006" y1="-58.77852522924712" x2="240.00000000000009" y2="-30.90169943924713" style="stroke:rgb(150,150,150);" />

<line x1="230.00000000000006" y1="-97.23699203976764" x2="240.00000000000009" y2="-95.10565162976764" />

<line x1="230.00000000000006" y1="-94.55032620941837" x2="240.00000000000009" y2="-90.45084971941837" style="stroke:rgb(0,100,0);" />

<line x1="240.00000000000009" y1="-30.901699437494518" x2="250.00000000000009" y2="2.5054847085925758e-09" style="stroke:rgb(150,150,150);" />

<line x1="240.00000000000009" y1="-95.10565162951534" x2="250.00000000000009" y2="-92.38795324951535" />

<line x1="240.00000000000009" y1="-90.45084971874732" x2="250.00000000000009" y2="-85.35533905874732" style="stroke:rgb(0,100,0);" />

<line x1="250.00000000000009" y1="2.3583735593135373e-13" x2="260.0000000000001" y2="30.901699440000236" style="stroke:rgb(150,150,150);" />

<line x1="250.00000000000009" y1="-92.38795325112865" x2="260.0000000000001" y2="-89.10065242112866" />

<line x1="250.00000000000009" y1="-85.35533905932733" x2="260.0000000000001" y2="-79.38926261932733" style="stroke:rgb(0,100,0);" />

<line x1="260.0000000000001" y1="30.90169943749505" x2="270.0000000000001" y2="58.77852522749505" style="stroke:rgb(150,150,150);" />

<line x1="260.0000000000001" y1="-89.10065241883675" x2="270.0000000000001" y2="-85.26401643883675" />

<line x1="260.0000000000001" y1="-79.38926261462359" x2="270.0000000000001" y2="-72.6995249846236" style="stroke:rgb(0,100,0);" />

<line x1="270.0000000000001" y1="58.77852522924757" x2="280.0000000000001" y2="80.90169943924757" style="stroke:rgb(150,150,150);" />

<line x1="270.0000000000001" y1="-85.26401643540919" x2="280.0000000000001" y2="-80.90169943540918" />

<line x1="270.0000000000001" y1="-72.69952498697727" x2="280.0000000000001" y2="-65.45084971697726" style="stroke:rgb(0,100,0);" />

<line x1="280.0000000000001" y1="80.90169943749494" x2="290.0000000000001" y2="95.10565162749494" style="stroke:rgb(150,150,150);" />

<line x1="280.0000000000001" y1="-80.9016994374947" x2="290.0000000000001" y2="-76.0405965574947" />

<line x1="280.0000000000001" y1="-65.45084971874729" x2="290.0000000000001" y2="-57.82172324874729" style="stroke:rgb(0,100,0);" />

<line x1="290.0000000000001" y1="95.10565162951545" x2="300.0000000000001" y2="99.99999999951545" style="stroke:rgb(150,150,150);" />

<line x1="290.0000000000001" y1="-76.04059656000304" x2="300.0000000000001" y2="-70.71067812000304" />

<line x1="290.0000000000001" y1="-57.82172325201146" x2="300.0000000000001" y2="-50.00000000201146" style="stroke:rgb(0,100,0);" />

<line x1="300.0000000000001" y1="100.0" x2="310.0000000000001" y2="95.10565163" style="stroke:rgb(150,150,150);" />

<line x1="300.0000000000001" y1="-70.71067811865468" x2="310.0000000000001" y2="-64.9448048286547" />

<line x1="300.0000000000001" y1="-49.999999999999915" x2="310.0000000000001" y2="-42.17827674999992" style="stroke:rgb(0,100,0);" />

<line x1="310.0000000000001" y1="95.10565162951521" x2="320.00000000000017" y2="80.90169943951521" style="stroke:rgb(150,150,150);" />

<line x1="310.0000000000001" y1="-64.94480483301828" x2="320.00000000000017" y2="-58.77852523301827" />

<line x1="310.0000000000001" y1="-42.17827674798833" x2="320.00000000000017" y2="-34.549150277988325" style="stroke:rgb(0,100,0);" />

<line x1="320.00000000000017" y1="80.90169943749446" x2="330.00000000000017" y2="58.77852522749446" style="stroke:rgb(150,150,150);" />

<line x1="320.00000000000017" y1="-58.778525229247215" x2="330.00000000000017" y2="-52.24985646924721" />

<line x1="320.00000000000017" y1="-34.54915028125251" x2="330.00000000000017" y2="-27.300475011252505" style="stroke:rgb(0,100,0);" />

<line x1="330.00000000000017" y1="58.77852522924692" x2="340.00000000000017" y2="30.901699439246915" style="stroke:rgb(150,150,150);" />

<line x1="330.00000000000017" y1="-52.24985647159478" x2="340.00000000000017" y2="-45.39904997159478" />

<line x1="330.00000000000017" y1="-27.300475013022552" x2="340.00000000000017" y2="-20.610737383022553" style="stroke:rgb(0,100,0);" />

<line x1="340.00000000000017" y1="30.901699437494273" x2="350.00000000000017" y2="-2.5057289576579933e-09" style="stroke:rgb(150,150,150);" />

<line x1="340.00000000000017" y1="-45.39904997395457" x2="350.00000000000017" y2="-38.268343233954575" />

<line x1="340.00000000000017" y1="-20.610737385376243" x2="350.00000000000017" y2="-14.644660945376241" style="stroke:rgb(0,100,0);" />

<line x1="350.00000000000017" y1="-4.900444138499178e-13" x2="360.00000000000017" y2="-30.901699440000492" style="stroke:rgb(150,150,150);" />

<line x1="350.00000000000017" y1="-38.26834323650886" x2="360.00000000000017" y2="-30.90169943650886" />

<line x1="350.00000000000017" y1="-14.644660940672532" x2="360.00000000000017" y2="-9.549150280672533" style="stroke:rgb(0,100,0);" />

<line x1="360.00000000000017" y1="-30.901699437495207" x2="370.00000000000017" y2="-58.7785252274952" style="stroke:rgb(150,150,150);" />

<line x1="360.00000000000017" y1="-30.901699437494628" x2="370.00000000000017" y2="-23.344536387494628" />

<line x1="360.00000000000017" y1="-9.549150281252555" x2="370.00000000000017" y2="-5.449673791252555" style="stroke:rgb(0,100,0);" />

<line x1="370.00000000000017" y1="-58.778525229247705" x2="380.0000000000002" y2="-80.9016994392477" style="stroke:rgb(150,150,150);" />

<line x1="370.00000000000017" y1="-23.344536385590423" x2="380.0000000000002" y2="-15.643446505590422" />

<line x1="370.00000000000017" y1="-5.449673790581549" x2="380.0000000000002" y2="-2.4471741805815497" style="stroke:rgb(0,100,0);" />

<line x1="380.0000000000002" y1="-80.90169943749514" x2="390.0000000000002" y2="-95.10565162749513" style="stroke:rgb(150,150,150);" />

<line x1="380.0000000000002" y1="-15.643446504022924" x2="390.0000000000002" y2="-7.845909574022923" />

<line x1="380.0000000000002" y1="-2.447174185242268" x2="390.0000000000002" y2="-0.6155829752422678" style="stroke:rgb(0,100,0);" />

<line x1="390.0000000000002" y1="-95.10565162951556" x2="400.00000000000017" y2="-99.99999999951557" style="stroke:rgb(150,150,150);" />

<line x1="390.0000000000002" y1="-7.845909572784329" x2="400.00000000000017" y2="-2.784329711236211e-09" />

<line x1="390.0000000000002" y1="-0.6155829702430893" x2="400.00000000000017" y2="-2.4308931603767014e-10" style="stroke:rgb(0,100,0);" />

<line x1="400.00000000000017" y1="-100.0" x2="410.0000000000001" y2="-95.10565163" style="stroke:rgb(150,150,150);" />

<line x1="400.00000000000017" y1="-1.2098029496354524e-13" x2="410.0000000000001" y2="-7.845909570000121" />

<line x1="400.00000000000017" y1="0.0" x2="410.0000000000001" y2="-0.61558297" style="stroke:rgb(0,100,0);" />

<line x1="410.0000000000001" y1="-95.10565162951521" x2="420.0000000000001" y2="-80.90169943951521" style="stroke:rgb(150,150,150);" />

<line x1="410.0000000000001" y1="-7.845909572784615" x2="420.0000000000001" y2="-15.643446502784613" />

<line x1="410.0000000000001" y1="-0.6155829702431337" x2="420.0000000000001" y2="-2.4471741802431337" style="stroke:rgb(0,100,0);" />

<line x1="420.0000000000001" y1="-80.90169943749457" x2="430.00000000000006" y2="-58.77852522749457" style="stroke:rgb(150,150,150);" />

<line x1="420.0000000000001" y1="-15.643446504023162" x2="430.00000000000006" y2="-23.34453638402316" />

<line x1="420.0000000000001" y1="-2.4471741852423454" x2="430.00000000000006" y2="-5.4496737952423455" style="stroke:rgb(0,100,0);" />

<line x1="430.00000000000006" y1="-58.778525229247215" x2="440.00000000000006" y2="-30.901699439247217" style="stroke:rgb(150,150,150);" />

<line x1="430.00000000000006" y1="-23.344536385590573" x2="440.00000000000006" y2="-30.901699435590572" />

<line x1="430.00000000000006" y1="-5.449673790581622" x2="440.00000000000006" y2="-9.549150280581623" style="stroke:rgb(0,100,0);" />

<line x1="440.00000000000006" y1="-30.901699437494624" x2="450.0" y2="2.5053792374052364e-09" style="stroke:rgb(150,150,150);" />

<line x1="440.00000000000006" y1="-30.901699437494774" x2="450.0" y2="-38.268343237494776" />

<line x1="440.00000000000006" y1="-9.54915028125265" x2="450.0" y2="-14.64466094125265" style="stroke:rgb(0,100,0);" />

<line x1="450.0" y1="-5.510910596163089e-14" x2="459.99999999999994" y2="30.90169943999995" style="stroke:rgb(150,150,150);" />

<line x1="450.0" y1="-38.26834323650897" x2="459.99999999999994" y2="-45.39904997650896" />

<line x1="450.0" y1="-14.644660940672615" x2="459.99999999999994" y2="-20.610737380672617" style="stroke:rgb(0,100,0);" />

<line x1="459.99999999999994" y1="30.901699437494518" x2="469.99999999999994" y2="58.77852522749451" style="stroke:rgb(150,150,150);" />

<line x1="459.99999999999994" y1="-45.399049973954625" x2="469.99999999999994" y2="-52.24985647395462" />

<line x1="459.99999999999994" y1="-20.6107373853763" x2="469.99999999999994" y2="-27.300475015376303" style="stroke:rgb(0,100,0);" />

<line x1="469.99999999999994" y1="58.77852522924712" x2="479.9999999999999" y2="80.90169943924712" style="stroke:rgb(150,150,150);" />

<line x1="469.99999999999994" y1="-52.24985647159484" x2="479.9999999999999" y2="-58.778525231594834" />

<line x1="469.99999999999994" y1="-27.300475013022606" x2="479.9999999999999" y2="-34.549150283022605" style="stroke:rgb(0,100,0);" />

<line x1="479.9999999999999" y1="80.9016994374945" x2="489.9999999999999" y2="95.10565162749451" style="stroke:rgb(150,150,150);" />

<line x1="479.9999999999999" y1="-58.77852522924722" x2="489.9999999999999" y2="-64.94480482924723" />

<line x1="479.9999999999999" y1="-34.54915028125253" x2="489.9999999999999" y2="-42.17827675125253" style="stroke:rgb(0,100,0);" />

<line x1="489.9999999999999" y1="95.10565162951518" x2="499.99999999999983" y2="99.99999999951518" style="stroke:rgb(150,150,150);" />

<line x1="489.9999999999999" y1="-64.94480483301825" x2="499.99999999999983" y2="-70.71067812301825" />

<line x1="489.9999999999999" y1="-42.17827674798831" x2="499.99999999999983" y2="-49.99999999798831" style="stroke:rgb(0,100,0);" />

<line x1="499.99999999999983" y1="100.0" x2="509.9999999999998" y2="95.10565163" style="stroke:rgb(150,150,150);" />

<line x1="499.99999999999983" y1="-70.71067811865464" x2="509.9999999999998" y2="-76.04059655865466" />

<line x1="499.99999999999983" y1="-49.99999999999986" x2="509.9999999999998" y2="-57.821723249999856" style="stroke:rgb(0,100,0);" />

<line x1="509.9999999999998" y1="95.10565162951553" x2="519.9999999999998" y2="80.90169943951554" style="stroke:rgb(150,150,150);" />

<line x1="509.9999999999998" y1="-76.040596560003" x2="519.9999999999998" y2="-80.901699440003" />

<line x1="509.9999999999998" y1="-57.8217232520114" x2="519.9999999999998" y2="-65.45084972201141" style="stroke:rgb(0,100,0);" />

<line x1="519.9999999999998" y1="80.9016994374952" x2="529.9999999999998" y2="58.7785252274952" style="stroke:rgb(150,150,150);" />

<line x1="519.9999999999998" y1="-80.90169943749463" x2="529.9999999999998" y2="-85.26401643749463" />

<line x1="519.9999999999998" y1="-65.4508497187472" x2="529.9999999999998" y2="-72.6995249887472" style="stroke:rgb(0,100,0);" />

<line x1="529.9999999999998" y1="58.77852522924808" x2="539.9999999999997" y2="30.90169943924808" style="stroke:rgb(150,150,150);" />

<line x1="529.9999999999998" y1="-85.26401643540909" x2="539.9999999999997" y2="-89.1006524154091" />

<line x1="529.9999999999998" y1="-72.69952498697712" x2="539.9999999999997" y2="-79.38926261697713" style="stroke:rgb(0,100,0);" />

<line x1="539.9999999999997" y1="30.901699437495818" x2="549.9999999999997" y2="-2.5041857476537643e-09" style="stroke:rgb(150,150,150);" />

<line x1="539.9999999999997" y1="-89.10065241883666" x2="549.9999999999997" y2="-92.38795324883665" />

<line x1="539.9999999999997" y1="-79.38926261462342" x2="549.9999999999997" y2="-85.35533905462343" style="stroke:rgb(0,100,0);" />

<line x1="549.9999999999997" y1="1.3108053615332798e-12" x2="559.9999999999997" y2="-30.90169943999869" style="stroke:rgb(150,150,150);" />

<line x1="549.9999999999997" y1="-92.38795325112855" x2="559.9999999999997" y2="-95.10565163112855" />

<line x1="549.9999999999997" y1="-85.35533905932715" x2="559.9999999999997" y2="-90.45084971932715" style="stroke:rgb(0,100,0);" />

<line x1="559.9999999999997" y1="-30.90169943749366" x2="569.9999999999995" y2="-58.77852522749366" style="stroke:rgb(150,150,150);" />

<line x1="559.9999999999997" y1="-95.10565162951526" x2="569.9999999999995" y2="-97.23699203951527" />

<line x1="559.9999999999997" y1="-90.45084971874721" x2="569.9999999999995" y2="-94.55032620874721" style="stroke:rgb(0,100,0);" />

<line x1="569.9999999999995" y1="-58.77852522924625" x2="579.9999999999995" y2="-80.90169943924624" style="stroke:rgb(150,150,150);" />

<line x1="569.9999999999995" y1="-97.23699203976759" x2="579.9999999999995" y2="-98.76883405976758" />

<line x1="569.9999999999995" y1="-94.55032620941824" x2="579.9999999999995" y2="-97.55282581941825" style="stroke:rgb(0,100,0);" />

<line x1="579.9999999999995" y1="-80.90169943749387" x2="589.9999999999995" y2="-95.10565162749387" style="stroke:rgb(150,150,150);" />

<line x1="579.9999999999995" y1="-98.76883405951371" x2="589.9999999999995" y2="-99.69173336951371" />

<line x1="579.9999999999995" y1="-97.55282581475757" x2="589.9999999999995" y2="-99.38441702475758" style="stroke:rgb(0,100,0);" />

<line x1="589.9999999999995" y1="-95.10565162951484" x2="599.9999999999994" y2="-99.99999999951484" style="stroke:rgb(150,150,150);" />

<line x1="589.9999999999995" y1="-99.69173337331276" x2="599.9999999999994" y2="-100.00000000331278" />

<line x1="589.9999999999995" y1="-99.38441702975682" x2="599.9999999999994" y2="-99.99999999975682" style="stroke:rgb(0,100,0);" />

<line x1="599.9999999999994" y1="-100.0" x2="609.9999999999994" y2="-95.10565163" style="stroke:rgb(150,150,150);" />

<line x1="599.9999999999994" y1="-100.0" x2="609.9999999999994" y2="-99.69173337000001" />

<line x1="599.9999999999994" y1="-100.0" x2="609.9999999999994" y2="-99.38441703000001" style="stroke:rgb(0,100,0);" />

<line x1="609.9999999999994" y1="-95.10565162951599" x2="619.9999999999994" y2="-80.90169943951598" style="stroke:rgb(150,150,150);" />

<line x1="609.9999999999994" y1="-99.69173337331284" x2="619.9999999999994" y2="-98.76883406331284" />

<line x1="609.9999999999994" y1="-99.38441702975696" x2="619.9999999999994" y2="-97.55282581975696" style="stroke:rgb(0,100,0);" />

<line x1="619.9999999999994" y1="-80.90169943749584" x2="629.9999999999993" y2="-58.778525227495834" style="stroke:rgb(150,150,150);" />

<line x1="619.9999999999994" y1="-98.76883405951385" x2="629.9999999999993" y2="-97.23699203951385" />

<line x1="619.9999999999994" y1="-97.55282581475781" x2="629.9999999999993" y2="-94.55032620475782" style="stroke:rgb(0,100,0);" />

<line x1="629.9999999999993" y1="-58.778525229248956" x2="639.9999999999993" y2="-30.901699439248958" style="stroke:rgb(150,150,150);" />

<line x1="629.9999999999993" y1="-97.23699203976778" x2="639.9999999999993" y2="-95.10565162976778" />

<line x1="629.9999999999993" y1="-94.55032620941863" x2="639.9999999999993" y2="-90.45084971941863" style="stroke:rgb(0,100,0);" />

<line x1="639.9999999999993" y1="-30.901699437496845" x2="649.9999999999993" y2="2.503158791355986e-09" style="stroke:rgb(150,150,150);" />

<line x1="639.9999999999993" y1="-95.10565162951553" x2="649.9999999999993" y2="-92.38795324951553" />

<line x1="639.9999999999993" y1="-90.45084971874769" x2="649.9999999999993" y2="-85.35533905874769" style="stroke:rgb(0,100,0);" />

<line x1="649.9999999999993" y1="-2.3888659331649033e-12" x2="659.9999999999992" y2="30.901699439997614" style="stroke:rgb(150,150,150);" />

<line x1="649.9999999999993" y1="-92.3879532511289" x2="659.9999999999992" y2="-89.10065242112891" />

<line x1="649.9999999999993" y1="-85.35533905932779" x2="659.9999999999992" y2="-79.3892626193278" style="stroke:rgb(0,100,0);" />

<line x1="659.9999999999992" y1="30.901699437492304" x2="669.9999999999992" y2="58.778525227492295" style="stroke:rgb(150,150,150);" />

<line x1="659.9999999999992" y1="-89.10065241883707" x2="669.9999999999992" y2="-85.26401643883707" />

<line x1="659.9999999999992" y1="-79.38926261462417" x2="669.9999999999992" y2="-72.69952498462418" style="stroke:rgb(0,100,0);" />

<line x1="669.9999999999992" y1="58.77852522924538" x2="679.9999999999992" y2="80.90169943924538" style="stroke:rgb(150,150,150);" />

<line x1="669.9999999999992" y1="-85.26401643540954" x2="679.9999999999992" y2="-80.90169943540954" />

<line x1="669.9999999999992" y1="-72.69952498697788" x2="679.9999999999992" y2="-65.45084971697787" style="stroke:rgb(0,100,0);" />

<line x1="679.9999999999992" y1="80.90169943749324" x2="689.9999999999991" y2="95.10565162749323" style="stroke:rgb(150,150,150);" />

<line x1="679.9999999999992" y1="-80.90169943749513" x2="689.9999999999991" y2="-76.04059655749512" />

<line x1="679.9999999999992" y1="-65.45084971874799" x2="689.9999999999991" y2="-57.82172324874798" style="stroke:rgb(0,100,0);" />

<line x1="689.9999999999991" y1="95.10565162951451" x2="699.9999999999991" y2="99.99999999951451" style="stroke:rgb(150,150,150);" />

<line x1="689.9999999999991" y1="-76.04059656000354" x2="699.9999999999991" y2="-70.71067812000354" />

<line x1="689.9999999999991" y1="-57.82172325201223" x2="699.9999999999991" y2="-50.00000000201222" style="stroke:rgb(0,100,0);" />

<line x1="699.9999999999991" y1="100.0" x2="709.9999999999991" y2="95.10565163" style="stroke:rgb(150,150,150);" />

<line x1="699.9999999999991" y1="-70.71067811865527" x2="709.9999999999991" y2="-64.94480482865526" />

<line x1="699.9999999999991" y1="-50.00000000000073" x2="709.9999999999991" y2="-42.178276750000734" style="stroke:rgb(0,100,0);" />

<line x1="709.9999999999991" y1="95.10565162951632" x2="719.9999999999991" y2="80.90169943951632" style="stroke:rgb(150,150,150);" />

<line x1="709.9999999999991" y1="-64.94480483301895" x2="719.9999999999991" y2="-58.778525233018954" />

<line x1="709.9999999999991" y1="-42.178276747989216" x2="719.9999999999991" y2="-34.54915027798921" style="stroke:rgb(0,100,0);" />

<line x1="719.9999999999991" y1="80.90169943749646" x2="729.999999999999" y2="58.77852522749647" style="stroke:rgb(150,150,150);" />

<line x1="719.9999999999991" y1="-58.778525229247904" x2="729.999999999999" y2="-52.2498564692479" />

<line x1="719.9999999999991" y1="-34.54915028125332" x2="729.999999999999" y2="-27.300475011253322" style="stroke:rgb(0,100,0);" />

<line x1="729.999999999999" y1="58.77852522924982" x2="739.999999999999" y2="30.901699439249825" style="stroke:rgb(150,150,150);" />

<line x1="729.999999999999" y1="-52.24985647159555" x2="739.999999999999" y2="-45.399049971595545" />

<line x1="729.999999999999" y1="-27.300475013023352" x2="739.999999999999" y2="-20.610737383023352" style="stroke:rgb(0,100,0);" />

<line x1="739.999999999999" y1="30.90169943749787" x2="749.999999999999" y2="-2.502131835058208e-09" style="stroke:rgb(150,150,150);" />

<line x1="739.999999999999" y1="-45.399049973955414" x2="749.999999999999" y2="-38.26834323395541" />

<line x1="739.999999999999" y1="-20.610737385377004" x2="749.999999999999" y2="-14.644660945377003" style="stroke:rgb(0,100,0);" />

<line x1="749.999999999999" y1="3.466926504796527e-12" x2="759.9999999999989" y2="-30.901699439996534" style="stroke:rgb(150,150,150);" />

<line x1="749.999999999999" y1="-38.26834323650978" x2="759.9999999999989" y2="-30.901699436509777" />

<line x1="749.999999999999" y1="-14.644660940673232" x2="759.9999999999989" y2="-9.549150280673233" style="stroke:rgb(0,100,0);" />

<line x1="759.9999999999989" y1="-30.901699437491274" x2="769.9999999999989" y2="-58.77852522749127" style="stroke:rgb(150,150,150);" />

<line x1="759.9999999999989" y1="-30.901699437495612" x2="769.9999999999989" y2="-23.344536387495612" />

<line x1="759.9999999999989" y1="-9.54915028125316" x2="769.9999999999989" y2="-5.4496737912531605" style="stroke:rgb(0,100,0);" />

<line x1="769.9999999999989" y1="-58.77852522924422" x2="779.9999999999989" y2="-80.90169943924421" style="stroke:rgb(150,150,150);" />

<line x1="769.9999999999989" y1="-23.34453638559147" x2="779.9999999999989" y2="-15.643446505591472" />

<line x1="769.9999999999989" y1="-5.449673790582038" x2="779.9999999999989" y2="-2.447174180582038" style="stroke:rgb(0,100,0);" />

<line x1="779.9999999999989" y1="-80.9016994374926" x2="789.9999999999987" y2="-95.1056516274926" style="stroke:rgb(150,150,150);" />

<line x1="779.9999999999989" y1="-15.64344650402399" x2="789.9999999999987" y2="-7.845909574023989" />

<line x1="779.9999999999989" y1="-2.447174185242601" x2="789.9999999999987" y2="-0.6155829752426009" style="stroke:rgb(0,100,0);" />

<line x1="789.9999999999987" y1="-95.10565162951417" x2="799.9999999999987" y2="-99.99999999951417" style="stroke:rgb(150,150,150);" />

<line x1="789.9999999999987" y1="-7.845909572785448" x2="799.9999999999987" y2="-2.7854482609335207e-09" />

<line x1="789.9999999999987" y1="-0.6155829702432614" x2="799.9999999999987" y2="-2.4326140060648704e-10" style="stroke:rgb(0,100,0);" />

<line x1="0" y1="0" x2="800.0" y2="0" />

<line x1="0" y1="-80.0" x2="800.0" y2="-80.0" style="stroke:red;" />

</g></svg>